<svg width="33" height="32" viewBox="0 0 33 32" fill="none" xmlns="http://www.w3.org/2000/svg">
<g id="outline/store 01">
<path id="Rectangle 743" d="M27.4993 16V24C27.4993 26.9455 25.1115 29.3333 22.166 29.3333H11.4993C8.55383 29.3333 6.16602 26.9455 6.16602 24V16" stroke="#141718" stroke-width="2.5" stroke-linejoin="round"/>
<path id="Vector" d="M23.1916 2.66663H10.475C8.05182 2.66663 5.87281 4.3263 4.97288 6.85736L3.96223 9.69979C3.6563 10.5602 3.44483 11.4809 3.66797 12.3665C4.19643 14.4636 5.91093 16 7.94439 16C10.399 16 12.3888 13.7614 12.3888 11C12.3888 13.7614 14.3787 16 16.8333 16C19.2879 16 21.2777 13.7614 21.2777 11C21.2777 13.7614 23.2676 16 25.7222 16C27.7556 16 29.4701 14.4636 29.9986 12.3665C30.2217 11.4809 30.0103 10.5602 29.7043 9.69979L28.6937 6.85735C27.7938 4.3263 25.6147 2.66663 23.1916 2.66663Z" stroke="#141718" stroke-width="2.5" stroke-linejoin="round"/>
<path id="Rectangle 744" d="M12.833 25.3334C12.833 23.1242 14.6239 21.3334 16.833 21.3334C19.0421 21.3334 20.833 23.1242 20.833 25.3334V29.3334H12.833V25.3334Z" stroke="#141718" stroke-width="2.5" stroke-linejoin="round"/>
</g>
</svg>
